<svg xmlns="http://www.w3.org/2000/svg" viewBox="0 0 64 64" role="img" aria-hidden="true">
  <rect width="64" height="64" rx="14" fill="#34c759"/>
  <path d="M22 17c2-2 5.1-2 7.1 0l4.3 4.3c1.8 1.8 2 4.6.5 6.6l-2.6 3.4a31.8 31.8 0 0 0 5.3 6.4 31.8 31.8 0 0 0 6.4 5.3l3.4-2.6c2-1.5 4.8-1.3 6.6.5l4.3 4.3c2 2 2 5.1 0 7.1l-1.9 1.9c-1.8 1.8-4.5 2.6-7.1 2.1-7.3-1.3-14.2-5.2-20.8-11.8S17.9 31.9 16.6 24.6c-.5-2.6.3-5.3 2.1-7.1l3.3-.5z" fill="#fff" transform="translate(-1 -1) scale(0.95 0.95) translate(2 2)"/>
</svg>
